<?xml version="1.0" encoding="utf-8"?>
<svg version="1.0" id="logo-light-blue" xmlns="http://www.w3.org/2000/svg" xmlns:xlink="http://www.w3.org/1999/xlink" x="0px" y="0px"
	 viewBox="0 0 210 53" style="enable-background:new 0 0 210 53;" xml:space="preserve">
<style type="text/css">
	.st0{fill:#8097A9;}
</style>
<g>
	<g id="logo">
		<path class="st0" d="M20,21.8c-0.8,2.4-4.6,2.1-10.4,2.1c0,0,0-17.2,0-17.7c-0.1-0.5,0-1,0.3-1.5C10.4,4,12,4,13.9,4V0.8H0V4
			c0.5,0,3.2-0.2,3.6,0.8c0.2,0.4,0.2,0.9,0.2,1.4c0,0.6,0,15.5,0,15.5c0.1,0.5,0,1-0.1,1.5C3.4,23.7,3.1,24,0,24c0,1.3,0,3.1,0,3.1
			h23.6V15.9h-2.8C20.8,17.9,20.5,19.9,20,21.8z"/>
		<path class="st0" d="M116.5,5.3v17c0,1.8-1.9,1.5-3.7,1.6v3.2h13.4v-3.2c-2.6,0-3.7,0.2-3.7-1.6V5.3c0-1.4,1.3-1.2,3.7-1.2V0.8
			h-13.4v3.2C114.8,4.1,116.5,3.8,116.5,5.3z"/>
		<path class="st0" d="M199.3,11.1c-6.7-1.4-6.9-2.8-7.1-3.6c-0.1-0.4-0.1-0.8,0-1.2c0.1-0.4,0.2-0.8,0.5-1.1c0.6-0.9,2-1.7,4.2-1.7
			c6.4,0,7.9,4.4,8.6,7.5h2.8V0.8H206l-1.4,1.9c-2.2-1.7-4.9-2.6-7.7-2.6c-3.7,0-9.5,1.6-9.5,8.2c0,6.9,7.3,7.8,10.5,8.4
			c4.3,0.9,6.1,1.7,6.8,2.9c0.3,0.7,0.4,1.4,0.2,2.2c-0.2,0.7-0.6,1.4-1.2,1.8c-1.1,0.9-4,1.5-7.9,0.4c-3.5-1-4.9-4.7-5.5-7.5h-2.6
			v10.6h2.1l1.5-2.1c0.4,0.7,4,3,8.7,3c4.7,0,10-2.1,10-8.3C210,12.6,201.6,11.6,199.3,11.1z"/>
		<path class="st0" d="M146.1,4.1h2.4c1.8,0,1.7,0.8,1.7,1.7c0,4.4,0,11.6,0,11.6L138.8,0.8h-10.6v3.3h2.3c1.5,0,1.6,0.8,1.7,2.1
			v15.5c0,2.6-0.7,2.2-4,2.2v3.2h12.9v-3.2c-3.6,0-4.6,0.4-4.6-2V7.8c4.4,6.5,13.2,19.3,13.2,19.3h5V5.6c0-0.6,0-1.5,1.1-1.5h2.8
			V0.8h-12.5L146.1,4.1z"/>
		<path class="st0" d="M160.2,4.1c3.4,0,4.4-0.4,4.3,1.6v16.5c0,2.1-0.8,1.7-4.3,1.7v3.2h25.2V15.9h-3v3.2c0,3.8-2.7,4.8-5.1,4.7
			h-7.1V15c0,0,2.9-0.3,3.9,0.7c1.2,1.2,1.1,4.8,1.1,4.8h2.9V7.2h-2.8c0,0-0.1,3.4-1.1,4.2c-1.1,0.8-3.9,0.6-3.9,0.6V4.1h7
			c0.5,0,2.9-0.1,4,1c1.1,1.1,1.2,3.5,1.2,4.7c0,1.2,0,1.8,0,1.8h2.8V0.8h-25.1L160.2,4.1z"/>
		<path class="st0" d="M113.8,34.7l-2.1-3.6H97l-2.4,3.6l-2-3.6H53.2l4.9,4.1h8.3l3.1,2.9h7.9l3.6,2.9h7.9l2.9,2.9h6.1v8.4h12.9
			v-8.4h6l2.8-2.9h8.2l2.7-2.9h8.6l2.6-2.9h8.7l4.5-4.1h-38.1L113.8,34.7z M102.4,39.1h3.7l-1.8,2.7L102.4,39.1z M106,47.2h-3.5
			l1.7-2.8L106,47.2z M101.6,38l-1.5-2.4h8.6l-1.6,2.4H101.6z M103.3,43.2l-4,6.1V37.1L103.3,43.2z M100,51l1.5-2.4h5.4l1.6,2.4H100
			z M109.3,49.5l-4.1-6.3l4.1-6.1V49.5z M151.4,32.5l-1.7,1.4h-22.3l-1.2,1.3h13.5l-1.6,1.6h-17.4l-1.2,1.2h9l-1.6,1.6h-13.1
			l-1.3,1.3h5l-1.4,1.4h-5.5v-8.2H97.8v8.2h-5.5L91,41h4.9l-1.4-1.3h-13l-1.9-1.6h9.2l-1.3-1.3H70.4l-1.8-1.6h13.8L81,33.9H58.6
			l-1.8-1.5h34.9l2.9,4.9l3.2-4.8h13l3,5l3.5-4.9H151.4z"/>
		<path class="st0" d="M71.7,4.1h2.4c1.8,0,1.7,0.8,1.7,1.7c0,4.4,0,11.6,0,11.6L64.5,0.8H53.8v3.3h2.9c1.3,0.1,1,0.8,1,2.1v15.5
			c0,2.5-0.5,2.2-4,2.2v3.2h12.9v-3.2c-3.5,0-4.6,0.3-4.6-2V7.8c4.4,6.5,13.2,19.3,13.2,19.3h5V5.6c0-0.6-0.1-1.5,1.1-1.5h2.8V0.8
			H71.7L71.7,4.1z"/>
		<path class="st0" d="M52.7,6.8c-1-1.7-2.3-3.1-3.9-4.2c-1.6-1.1-3.4-1.9-5.3-2.2C42.3,0.1,41,0,39.8,0c-3.9-0.1-7.7,1.4-10.6,4
			c-1.8,1.9-3.1,4.2-3.7,6.8c-0.6,2.6-0.5,5.2,0.4,7.7c0.8,2.4,2.3,4.5,4.2,6.2c1.9,1.6,4.3,2.7,6.8,3c1,0.1,2,0.2,3,0.2
			c4.9,0,9.4-1.8,12.4-5.9C55.2,18,55.3,11.2,52.7,6.8z M48,14c0,4-0.8,8.5-4.8,10.1c-1.1,0.4-2.3,0.5-3.4,0.5
			c-1.2,0-2.4-0.2-3.5-0.6c-3.6-1.5-4.7-6-4.7-10c0-3.6,1-7.8,3.6-9.5c1.4-0.9,3-1.3,4.6-1.3c1.7-0.1,3.3,0.4,4.7,1.3
			C46.8,6.2,48.2,9.6,48,14z"/>
		<path class="st0" d="M90.1,26.4c2,1.1,4.2,1.6,6.4,1.6c3.1,0,6.1-0.9,8.6-2.7c0.5,0.6,1,1.3,1.5,1.9h3.1V18c0-2.4,0.9-1.9,3.5-1.9
			v-2.9H99.6V16c3.5,0.1,4.3-0.5,4.3,2c0,5-3.3,6-4,6.3c-1.2,0.5-2.6,0.7-3.9,0.4c-1.3-0.3-2.5-1-3.3-2c-3.4-4-3.3-13.4,0.1-17.3
			c1.8-2,4.5-2.4,7.2-1.5c3.1,1,4.9,4.3,5.6,7.1h3.2V0.8h-3l-1.1,2.1c-1.8-1.4-4-2.4-6.4-2.7c-2.3-0.3-4.7,0-6.9,0.8
			c-4.9,1.9-7.4,7-7.7,11.8C83.5,18.4,85.2,23.6,90.1,26.4z"/>
	</g>
</g>
</svg>
